<mxfile host="app.diagrams.net" modified="2020-11-03T20:52:55.165Z" agent="5.0 (Windows NT 10.0; Win64; x64) AppleWebKit/537.36 (KHTML, like Gecko) Chrome/86.0.4240.111 Safari/537.36" etag="SbOt_jBwc3cdpop2hUcv" version="13.8.9" type="github">
  <diagram id="_EQEuJTT8OyhUTjadS2K" name="Page-1">
    <mxGraphModel dx="2170" dy="1205" grid="1" gridSize="10" guides="1" tooltips="1" connect="1" arrows="1" fold="1" page="1" pageScale="1" pageWidth="850" pageHeight="1100" math="0" shadow="0">
      <root>
        <mxCell id="0" />
        <mxCell id="1" parent="0" />
        <mxCell id="WYpjPD0Eb4biocK7WF5E-1" value="START" style="ellipse;whiteSpace=wrap;html=1;" parent="1" vertex="1">
          <mxGeometry x="40" y="10" width="100" height="80" as="geometry" />
        </mxCell>
        <mxCell id="WYpjPD0Eb4biocK7WF5E-2" value="INISIALISASI" style="whiteSpace=wrap;html=1;aspect=fixed;" parent="1" vertex="1">
          <mxGeometry x="50" y="110" width="80" height="80" as="geometry" />
        </mxCell>
        <mxCell id="WYpjPD0Eb4biocK7WF5E-3" value="BACA TEGANGAN" style="rhombus;whiteSpace=wrap;html=1;" parent="1" vertex="1">
          <mxGeometry x="40" y="220" width="100" height="100" as="geometry" />
        </mxCell>
        <mxCell id="WYpjPD0Eb4biocK7WF5E-4" value="" style="endArrow=none;html=1;" parent="1" edge="1">
          <mxGeometry width="50" height="50" relative="1" as="geometry">
            <mxPoint x="140" y="270" as="sourcePoint" />
            <mxPoint x="200" y="270" as="targetPoint" />
          </mxGeometry>
        </mxCell>
        <mxCell id="WYpjPD0Eb4biocK7WF5E-6" value="" style="endArrow=none;html=1;" parent="1" edge="1">
          <mxGeometry width="50" height="50" relative="1" as="geometry">
            <mxPoint x="200" y="270" as="sourcePoint" />
            <mxPoint x="200" y="210" as="targetPoint" />
          </mxGeometry>
        </mxCell>
        <mxCell id="WYpjPD0Eb4biocK7WF5E-7" value="" style="endArrow=none;html=1;" parent="1" edge="1">
          <mxGeometry width="50" height="50" relative="1" as="geometry">
            <mxPoint x="90" y="210" as="sourcePoint" />
            <mxPoint x="200" y="210" as="targetPoint" />
          </mxGeometry>
        </mxCell>
        <mxCell id="WYpjPD0Eb4biocK7WF5E-8" value="" style="endArrow=none;html=1;" parent="1" edge="1">
          <mxGeometry width="50" height="50" relative="1" as="geometry">
            <mxPoint x="89.75999999999999" y="220" as="sourcePoint" />
            <mxPoint x="89.75999999999999" y="190" as="targetPoint" />
          </mxGeometry>
        </mxCell>
        <mxCell id="WYpjPD0Eb4biocK7WF5E-9" value="BACA&lt;br&gt;&amp;nbsp;ARUS" style="rhombus;whiteSpace=wrap;html=1;" parent="1" vertex="1">
          <mxGeometry x="40" y="350" width="100" height="100" as="geometry" />
        </mxCell>
        <mxCell id="WYpjPD0Eb4biocK7WF5E-10" value="" style="endArrow=none;html=1;" parent="1" edge="1">
          <mxGeometry width="50" height="50" relative="1" as="geometry">
            <mxPoint x="89.70999999999998" y="350" as="sourcePoint" />
            <mxPoint x="89.70999999999998" y="320" as="targetPoint" />
          </mxGeometry>
        </mxCell>
        <mxCell id="WYpjPD0Eb4biocK7WF5E-11" value="" style="endArrow=none;html=1;" parent="1" edge="1">
          <mxGeometry width="50" height="50" relative="1" as="geometry">
            <mxPoint x="140" y="400" as="sourcePoint" />
            <mxPoint x="200" y="400" as="targetPoint" />
          </mxGeometry>
        </mxCell>
        <mxCell id="WYpjPD0Eb4biocK7WF5E-12" value="" style="endArrow=none;html=1;" parent="1" edge="1">
          <mxGeometry width="50" height="50" relative="1" as="geometry">
            <mxPoint x="200" y="400" as="sourcePoint" />
            <mxPoint x="200" y="340" as="targetPoint" />
          </mxGeometry>
        </mxCell>
        <mxCell id="WYpjPD0Eb4biocK7WF5E-13" value="" style="endArrow=none;html=1;" parent="1" edge="1">
          <mxGeometry width="50" height="50" relative="1" as="geometry">
            <mxPoint x="90" y="340" as="sourcePoint" />
            <mxPoint x="200" y="340" as="targetPoint" />
          </mxGeometry>
        </mxCell>
        <mxCell id="WYpjPD0Eb4biocK7WF5E-14" value="N" style="text;html=1;align=center;verticalAlign=middle;resizable=0;points=[];autosize=1;" parent="1" vertex="1">
          <mxGeometry x="150" y="250" width="20" height="20" as="geometry" />
        </mxCell>
        <mxCell id="WYpjPD0Eb4biocK7WF5E-15" value="Y" style="text;html=1;align=center;verticalAlign=middle;resizable=0;points=[];autosize=1;" parent="1" vertex="1">
          <mxGeometry x="90" y="320" width="20" height="20" as="geometry" />
        </mxCell>
        <mxCell id="WYpjPD0Eb4biocK7WF5E-16" value="N" style="text;html=1;align=center;verticalAlign=middle;resizable=0;points=[];autosize=1;" parent="1" vertex="1">
          <mxGeometry x="160" y="380" width="20" height="20" as="geometry" />
        </mxCell>
        <mxCell id="WYpjPD0Eb4biocK7WF5E-17" value="" style="endArrow=none;html=1;" parent="1" edge="1">
          <mxGeometry width="50" height="50" relative="1" as="geometry">
            <mxPoint x="90.00000000000006" y="480" as="sourcePoint" />
            <mxPoint x="90.00000000000006" y="450" as="targetPoint" />
          </mxGeometry>
        </mxCell>
        <mxCell id="WYpjPD0Eb4biocK7WF5E-18" value="PARSING DATA" style="rounded=0;whiteSpace=wrap;html=1;" parent="1" vertex="1">
          <mxGeometry x="30" y="480" width="120" height="60" as="geometry" />
        </mxCell>
        <mxCell id="WYpjPD0Eb4biocK7WF5E-19" value="" style="endArrow=none;html=1;" parent="1" edge="1">
          <mxGeometry width="50" height="50" relative="1" as="geometry">
            <mxPoint x="90" y="570" as="sourcePoint" />
            <mxPoint x="90" y="540" as="targetPoint" />
          </mxGeometry>
        </mxCell>
        <mxCell id="WYpjPD0Eb4biocK7WF5E-20" value="KIRIM KE ESP8266" style="rounded=0;whiteSpace=wrap;html=1;" parent="1" vertex="1">
          <mxGeometry x="30" y="570" width="120" height="60" as="geometry" />
        </mxCell>
        <mxCell id="WYpjPD0Eb4biocK7WF5E-21" value="" style="endArrow=none;html=1;" parent="1" edge="1">
          <mxGeometry width="50" height="50" relative="1" as="geometry">
            <mxPoint x="89.43" y="110" as="sourcePoint" />
            <mxPoint x="89" y="90" as="targetPoint" />
          </mxGeometry>
        </mxCell>
      </root>
    </mxGraphModel>
  </diagram>
</mxfile>
